<svg xmlns="http://www.w3.org/2000/svg" width="150" height="150" viewBox="0 0 150 150" preserveAspectRatio="xMidYMid meet"><path fill="#e8e8e8" d="M44 44L44 13L59.5 13ZM75 13L106 13L106 28.5ZM106 106L106 137L90.5 137ZM75 137L44 137L44 121.5ZM13 75L13 44L28.5 44ZM106 44L137 44L137 59.5ZM137 75L137 106L121.5 106ZM44 106L13 106L13 90.5Z"/><path fill="#d175ba" d="M18.2 28.5a10.3,10.3 0 1,1 20.7,0a10.3,10.3 0 1,1 -20.7,0M111.2 28.5a10.3,10.3 0 1,1 20.7,0a10.3,10.3 0 1,1 -20.7,0M111.2 121.5a10.3,10.3 0 1,1 20.7,0a10.3,10.3 0 1,1 -20.7,0M18.2 121.5a10.3,10.3 0 1,1 20.7,0a10.3,10.3 0 1,1 -20.7,0M75 44L75 68L60 44ZM106 75L82 75L106 60ZM75 106L75 82L90 106ZM44 75L68 75L44 90Z"/></svg>