<svg xmlns="http://www.w3.org/2000/svg" width="400" height="400" viewBox="0 0 400 400" preserveAspectRatio="xMidYMid meet"><path fill="#e8e8e8" d="M116 116L116 32L158 32ZM200 32L284 32L284 74ZM284 284L284 368L242 368ZM200 368L116 368L116 326ZM32 200L32 116L74 116ZM284 116L368 116L368 158ZM368 200L368 284L326 284ZM116 284L32 284L32 242Z"/><path fill="#d175ba" d="M46 74a28,28 0 1,1 56,0a28,28 0 1,1 -56,0M298 74a28,28 0 1,1 56,0a28,28 0 1,1 -56,0M298 326a28,28 0 1,1 56,0a28,28 0 1,1 -56,0M46 326a28,28 0 1,1 56,0a28,28 0 1,1 -56,0M200 116L200 183L158 116ZM284 200L217 200L284 158ZM200 284L200 217L242 284ZM116 200L183 200L116 242Z"/></svg>